<?xml version="1.0" standalone="no"?><!DOCTYPE svg PUBLIC "-//W3C//DTD SVG 1.1//EN" "http://www.w3.org/Graphics/SVG/1.1/DTD/svg11.dtd"><svg t="1640158166672" class="icon" viewBox="0 0 1024 1024" version="1.1" xmlns="http://www.w3.org/2000/svg" p-id="919" xmlns:xlink="http://www.w3.org/1999/xlink" width="200" height="200"><defs><style type="text/css"></style></defs><path d="M527.9 546.2c-58.1 0-112.8-22.6-153.9-63.7-41.1-41.1-63.7-95.8-63.7-153.9s22.6-112.8 63.7-153.9c41.1-41.1 95.8-63.7 153.9-63.7 58.1 0 112.8 22.6 153.9 63.7s63.7 95.8 63.7 153.9-22.6 112.8-63.7 153.9c-41.1 41.1-95.8 63.7-153.9 63.7z m0-385.2c-92.4 0-167.6 75.2-167.6 167.6s75.2 167.6 167.6 167.6c92.4 0 167.6-75.2 167.6-167.6S620.3 161 527.9 161zM307.4 906.6c-100.3 0-181.9-81.6-181.9-181.9s81.6-181.9 181.9-181.9 181.9 81.6 181.9 181.9-81.6 181.9-181.9 181.9z m0-313.8c-72.7 0-131.9 59.2-131.9 131.9s59.2 131.9 131.9 131.9 131.9-59.2 131.9-131.9-59.1-131.9-131.9-131.9z" fill="#cdcdcd" p-id="920"></path><path d="M307.4 906.6c-100.3 0-181.9-81.6-181.9-181.9s81.6-181.9 181.9-181.9 181.9 81.6 181.9 181.9-81.6 181.9-181.9 181.9z m0-313.8c-72.7 0-131.9 59.2-131.9 131.9s59.2 131.9 131.9 131.9 131.9-59.2 131.9-131.9-59.1-131.9-131.9-131.9zM761.1 817.4c-77 0-139.7-62.7-139.7-139.7S684.1 538 761.1 538s139.7 62.7 139.7 139.7-62.6 139.7-139.7 139.7z m0-229.4c-49.4 0-89.7 40.2-89.7 89.7s40.2 89.7 89.7 89.7 89.7-40.2 89.7-89.7-40.2-89.7-89.7-89.7z" fill="#cdcdcd" p-id="921"></path><path d="M761.1 817.4c-77 0-139.7-62.7-139.7-139.7S684.1 538 761.1 538s139.7 62.7 139.7 139.7-62.6 139.7-139.7 139.7z m0-229.4c-49.4 0-89.7 40.2-89.7 89.7s40.2 89.7 89.7 89.7 89.7-40.2 89.7-89.7-40.2-89.7-89.7-89.7zM352.555 593.334l68.85-116.127 43.01 25.5-68.85 116.127z" fill="#cdcdcd" p-id="922"></path><path d="M634.15 487.957l44.21-23.355 62.31 117.952-44.21 23.355z" fill="#cdcdcd" p-id="923"></path></svg>